<svg width="24" height="25" viewBox="0 0 24 25" fill="none" xmlns="http://www.w3.org/2000/svg">
<path d="M8.33734 12.5C8.33734 10.3489 10.0546 8.60473 12.1736 8.60473C14.2925 8.60473 16.0107 10.3489 16.0107 12.5C16.0107 14.651 14.2925 16.3952 12.1736 16.3952C10.0546 16.3952 8.33734 14.651 8.33734 12.5ZM6.26305 12.5C6.26305 15.8138 8.90918 18.5 12.1736 18.5C15.438 18.5 18.0841 15.8138 18.0841 12.5C18.0841 9.18616 15.438 6.49997 12.1736 6.49997C8.90918 6.49997 6.26305 9.18616 6.26305 12.5ZM16.9368 6.26207C16.9367 6.53939 17.0176 6.81052 17.1693 7.04117C17.321 7.27182 17.5366 7.45163 17.789 7.55786C18.0413 7.66409 18.319 7.69197 18.587 7.63797C18.855 7.58398 19.1011 7.45053 19.2944 7.25451C19.4876 7.05849 19.6193 6.8087 19.6727 6.53673C19.7261 6.26476 19.6988 5.98282 19.5944 5.72656C19.49 5.4703 19.313 5.25124 19.0859 5.09708C18.8588 4.94291 18.5918 4.86057 18.3186 4.86046H18.3181C17.9519 4.86063 17.6007 5.00834 17.3418 5.27114C17.0828 5.53394 16.9371 5.89034 16.9368 6.26207V6.26207ZM7.52331 22.0111C6.40108 21.9592 5.79112 21.7695 5.38576 21.6091C4.84836 21.3968 4.46492 21.1438 4.06178 20.7351C3.65863 20.3264 3.40908 19.9376 3.20079 19.392C3.04277 18.9807 2.85584 18.3613 2.80483 17.2221C2.74902 15.9904 2.73788 15.6205 2.73788 12.5001C2.73788 9.37966 2.74994 9.0107 2.80483 7.77801C2.85593 6.63879 3.04425 6.02062 3.20079 5.6081C3.41 5.06256 3.65918 4.67331 4.06178 4.26407C4.46437 3.85482 4.84744 3.60149 5.38576 3.39004C5.79093 3.22964 6.40108 3.03987 7.52331 2.98809C8.73661 2.93144 9.10108 2.92013 12.1736 2.92013C15.246 2.92013 15.6109 2.93237 16.8252 2.98809C17.9474 3.03997 18.5564 3.23113 18.9627 3.39004C19.5002 3.60149 19.8836 3.85538 20.2867 4.26407C20.6899 4.67275 20.9385 5.06256 21.1477 5.6081C21.3057 6.0194 21.4927 6.63879 21.5437 7.77801C21.5995 9.0107 21.6106 9.37966 21.6106 12.5001C21.6106 15.6205 21.5995 15.9894 21.5437 17.2221C21.4926 18.3613 21.3047 18.9805 21.1477 19.392C20.9385 19.9376 20.6893 20.3268 20.2867 20.7351C19.8841 21.1434 19.5002 21.3968 18.9627 21.6091C18.5576 21.7696 17.9474 21.9593 16.8252 22.0111C15.6119 22.0677 15.2474 22.0791 12.1736 22.0791C9.0997 22.0791 8.73625 22.0677 7.52331 22.0111V22.0111ZM7.42801 0.885949C6.20264 0.942596 5.36532 1.13984 4.63408 1.42868C3.87678 1.72697 3.23569 2.12715 2.59506 2.77645C1.95443 3.42575 1.56123 4.07758 1.26739 4.84634C0.982849 5.58912 0.788551 6.43865 0.732748 7.68257C0.676024 8.92844 0.66304 9.32675 0.66304 12.5C0.66304 15.6732 0.676024 16.0715 0.732748 17.3174C0.788551 18.5614 0.982849 19.4108 1.26739 20.1536C1.56123 20.9219 1.95452 21.5745 2.59506 22.2235C3.2356 22.8725 3.87678 23.2721 4.63408 23.5713C5.3667 23.8601 6.20264 24.0573 7.42801 24.114C8.65595 24.1706 9.04768 24.1847 12.1736 24.1847C15.2995 24.1847 15.6918 24.1716 16.9191 24.114C18.1446 24.0573 18.9814 23.8601 19.7131 23.5713C20.4699 23.2721 21.1114 22.8728 21.7521 22.2235C22.3927 21.5742 22.7851 20.9219 23.0797 20.1536C23.3643 19.4108 23.5595 18.5613 23.6144 17.3174C23.6702 16.0706 23.6832 15.6732 23.6832 12.5C23.6832 9.32675 23.6702 8.92844 23.6144 7.68257C23.5586 6.43856 23.3643 5.58865 23.0797 4.84634C22.7851 4.07804 22.3917 3.42678 21.7521 2.77645C21.1125 2.12612 20.4699 1.72697 19.714 1.42868C18.9814 1.13984 18.1445 0.941662 16.92 0.885949C15.6927 0.829301 15.3004 0.815186 12.1745 0.815186C9.0486 0.815186 8.65595 0.828366 7.42801 0.885949Z" fill="url(#paint0_radial_212_411)"/>
<path d="M8.33734 12.5C8.33734 10.3489 10.0546 8.60473 12.1736 8.60473C14.2925 8.60473 16.0107 10.3489 16.0107 12.5C16.0107 14.651 14.2925 16.3952 12.1736 16.3952C10.0546 16.3952 8.33734 14.651 8.33734 12.5ZM6.26305 12.5C6.26305 15.8138 8.90918 18.5 12.1736 18.5C15.438 18.5 18.0841 15.8138 18.0841 12.5C18.0841 9.18616 15.438 6.49997 12.1736 6.49997C8.90918 6.49997 6.26305 9.18616 6.26305 12.5ZM16.9368 6.26207C16.9367 6.53939 17.0176 6.81052 17.1693 7.04117C17.321 7.27182 17.5366 7.45163 17.789 7.55786C18.0413 7.66409 18.319 7.69197 18.587 7.63797C18.855 7.58398 19.1011 7.45053 19.2944 7.25451C19.4876 7.05849 19.6193 6.8087 19.6727 6.53673C19.7261 6.26476 19.6988 5.98282 19.5944 5.72656C19.49 5.4703 19.313 5.25124 19.0859 5.09708C18.8588 4.94291 18.5918 4.86057 18.3186 4.86046H18.3181C17.9519 4.86063 17.6007 5.00834 17.3418 5.27114C17.0828 5.53394 16.9371 5.89034 16.9368 6.26207V6.26207ZM7.52331 22.0111C6.40108 21.9592 5.79112 21.7695 5.38576 21.6091C4.84836 21.3968 4.46492 21.1438 4.06178 20.7351C3.65863 20.3264 3.40908 19.9376 3.20079 19.392C3.04277 18.9807 2.85584 18.3613 2.80483 17.2221C2.74902 15.9904 2.73788 15.6205 2.73788 12.5001C2.73788 9.37966 2.74994 9.0107 2.80483 7.77801C2.85593 6.63879 3.04425 6.02062 3.20079 5.6081C3.41 5.06256 3.65918 4.67331 4.06178 4.26407C4.46437 3.85482 4.84744 3.60149 5.38576 3.39004C5.79093 3.22964 6.40108 3.03987 7.52331 2.98809C8.73661 2.93144 9.10108 2.92013 12.1736 2.92013C15.246 2.92013 15.6109 2.93237 16.8252 2.98809C17.9474 3.03997 18.5564 3.23113 18.9627 3.39004C19.5002 3.60149 19.8836 3.85538 20.2867 4.26407C20.6899 4.67275 20.9385 5.06256 21.1477 5.6081C21.3057 6.0194 21.4927 6.63879 21.5437 7.77801C21.5995 9.0107 21.6106 9.37966 21.6106 12.5001C21.6106 15.6205 21.5995 15.9894 21.5437 17.2221C21.4926 18.3613 21.3047 18.9805 21.1477 19.392C20.9385 19.9376 20.6893 20.3268 20.2867 20.7351C19.8841 21.1434 19.5002 21.3968 18.9627 21.6091C18.5576 21.7696 17.9474 21.9593 16.8252 22.0111C15.6119 22.0677 15.2474 22.0791 12.1736 22.0791C9.0997 22.0791 8.73625 22.0677 7.52331 22.0111V22.0111ZM7.42801 0.885949C6.20264 0.942596 5.36532 1.13984 4.63408 1.42868C3.87678 1.72697 3.23569 2.12715 2.59506 2.77645C1.95443 3.42575 1.56123 4.07758 1.26739 4.84634C0.982849 5.58912 0.788551 6.43865 0.732748 7.68257C0.676024 8.92844 0.66304 9.32675 0.66304 12.5C0.66304 15.6732 0.676024 16.0715 0.732748 17.3174C0.788551 18.5614 0.982849 19.4108 1.26739 20.1536C1.56123 20.9219 1.95452 21.5745 2.59506 22.2235C3.2356 22.8725 3.87678 23.2721 4.63408 23.5713C5.3667 23.8601 6.20264 24.0573 7.42801 24.114C8.65595 24.1706 9.04768 24.1847 12.1736 24.1847C15.2995 24.1847 15.6918 24.1716 16.9191 24.114C18.1446 24.0573 18.9814 23.8601 19.7131 23.5713C20.4699 23.2721 21.1114 22.8728 21.7521 22.2235C22.3927 21.5742 22.7851 20.9219 23.0797 20.1536C23.3643 19.4108 23.5595 18.5613 23.6144 17.3174C23.6702 16.0706 23.6832 15.6732 23.6832 12.5C23.6832 9.32675 23.6702 8.92844 23.6144 7.68257C23.5586 6.43856 23.3643 5.58865 23.0797 4.84634C22.7851 4.07804 22.3917 3.42678 21.7521 2.77645C21.1125 2.12612 20.4699 1.72697 19.714 1.42868C18.9814 1.13984 18.1445 0.941662 16.92 0.885949C15.6927 0.829301 15.3004 0.815186 12.1745 0.815186C9.0486 0.815186 8.65595 0.828366 7.42801 0.885949Z" fill="url(#paint1_radial_212_411)"/>
<defs>
<radialGradient id="paint0_radial_212_411" cx="0" cy="0" r="1" gradientUnits="userSpaceOnUse" gradientTransform="translate(3.72152 24.2951) scale(30.052 30.507)">
<stop offset="0.09" stop-color="white"/>
<stop offset="0.78" stop-color="#D82D7E"/>
</radialGradient>
<radialGradient id="paint1_radial_212_411" cx="0" cy="0" r="1" gradientUnits="userSpaceOnUse" gradientTransform="translate(14.6243 25.3421) scale(23.6852 24.0437)">
<stop offset="0.64" stop-color="white"/>
</radialGradient>
</defs>
</svg>
